<?xml version="1.0" encoding="UTF-8"?>
<svg id="Layer_2" data-name="Layer 2" xmlns="http://www.w3.org/2000/svg" xmlns:xlink="http://www.w3.org/1999/xlink" viewBox="0 0 1577.59 424.44">
  <defs>
    <style>
      .cls-1 {
        fill: url(#linear-gradient);
      }

      .cls-2 {
        fill: #403d89;
      }

      .cls-3 {
        fill: url(#linear-gradient-2);
      }
    </style>
    <linearGradient id="linear-gradient" x1="1261.19" y1="343.76" x2="1261.19" y2="207.97" gradientUnits="userSpaceOnUse">
      <stop offset="0" stop-color="#18184c"/>
      <stop offset=".64" stop-color="#343277"/>
      <stop offset=".98" stop-color="#403d89"/>
    </linearGradient>
    <linearGradient id="linear-gradient-2" x1="316.15" y1="92.08" x2="316.15" y2="207.9" gradientUnits="userSpaceOnUse">
      <stop offset=".04" stop-color="#18184c"/>
      <stop offset=".66" stop-color="#343277"/>
      <stop offset=".99" stop-color="#403d89"/>
    </linearGradient>
  </defs>
  <g id="Layer_1-2" data-name="Layer 1">
    <g>
      <g>
        <path class="cls-2" d="m379.26,87.59C341.22,37.79,280.75,6.21,211.97,6.21,95.4,6.21,0,98.93,0,215.58s93.3,208.86,209.87,208.86,210.46-91.79,211.38-209.11c.08-.59.08-1.26.08-1.85,0-47.79-15.62-91.2-42.07-125.89Zm-168.3,255.47c-69.96,0-124.88-58.03-124.88-127.99s54.92-127.48,124.88-127.48,124.88,57.53,124.88,127.48v.25c-.17,69.87-55.01,127.74-124.88,127.74Z"/>
        <polygon class="cls-2" points="803.2 6.21 654.47 247.66 654.47 411.93 570.49 411.93 570.49 251.36 471.14 87.59 421.75 6.21 518.67 6.21 612.48 168.38 707.29 6.21 803.2 6.21"/>
        <path class="cls-2" d="m1112.84,291.75c0,15.29-3.11,30.65-9.32,45.1-18.98,44.93-66.85,81.38-139.41,81.38-3.02,0-5.96-.08-8.9-.17h-.08c-91.62-2.94-141.17-51.56-153.69-125.8l78.19-18.64c6.8,44.59,42.5,68.95,87.09,68.95,38.88,0,61.14-20.74,61.14-45.6,0-20.24-18.14-36.78-46.11-42.5l-57.53-11.42c-65.84-12.93-108.25-54.92-108.25-116.57,0-72.56,65.76-126.48,143.53-126.48,93.81,0,139.41,55.93,146.63,107.75l-76.17,22.84c-6.72-31.66-29.56-55.43-70.96-55.43-34.77,0-59.12,21.25-59.12,45.01,0,19.23,12.43,36.28,41.99,41.99l56.52,10.41c75.08,13.44,114.47,61.64,114.47,119.17Z"/>
        <path class="cls-2" d="m1368.23,0c-114.13,0-207.85,88.77-211.8,201.89-.08,2.44-.17,4.95-.17,7.47,0,48.37,15.96,92.46,42.92,127.48,38.21,49.8,98.59,81.38,166.95,81.38h.76c116.23-.42,210.71-93.05,210.71-210.96S1484.79,0,1368.23,0Zm-1.09,336.85h-1.01c-69.54-.59-123.87-58.37-123.87-127.99,0-2.35.08-4.62.17-6.97,3.53-66.76,57.11-120.51,124.71-120.51s124.96,57.53,124.96,127.48-55.01,127.99-124.96,127.99Z"/>
        <path class="cls-2" d="m471.14,87.59h-91.88C341.22,37.79,280.75,6.21,211.97,6.21h209.79l49.38,81.38Z"/>
        <g>
          <path class="cls-2" d="m955.21,418.06c2.94.08,5.88.17,8.9.17h-9.15l.17-.17h.08Z"/>
          <path class="cls-2" d="m1366.13,418.23h-402.02c72.56,0,120.43-36.45,139.41-81.38h95.66c38.21,49.8,98.59,81.38,166.95,81.38Z"/>
        </g>
      </g>
      <path class="cls-1" d="m1366.13,336.85h-166.95c-26.96-35.02-42.92-79.11-42.92-127.48,0-2.52.08-5.04.17-7.47h86c-.08,2.35-.17,4.62-.17,6.97,0,69.62,54.34,127.4,123.87,127.99Z"/>
      <path class="cls-3" d="m421.33,213.48c0,.59,0,1.26-.08,1.85h-85.41v-.25c0-69.96-54.92-127.48-124.88-127.48h168.3c26.46,34.68,42.07,78.1,42.07,125.89Z"/>
    </g>
  </g>
</svg>